<svg viewBox="0 0 835 385" fill="none" xmlns="http://www.w3.org/2000/svg">
<path d="M75.2468 303.916L75.3762 303.433L75.6788 302.304L75.6802 302.299C79.0239 290.325 82.8564 281.07 87.1912 274.56C91.519 268.06 96.5125 263.171 102.178 259.916C107.805 256.683 114.218 254.039 121.416 251.982C125.697 250.732 129.709 248.977 133.455 246.72C137.203 244.409 140.454 241.468 143.212 237.893L143.216 237.888C146.025 234.342 148.089 230.124 149.402 225.226C151.028 219.156 151.003 213.533 149.348 208.344C147.688 203.136 144.797 198.692 140.668 195.004C136.536 191.314 131.55 188.683 125.697 187.114C120.6 185.749 115.408 185.485 110.117 186.324C104.853 187.16 100.036 189.403 95.6609 193.068C91.3101 196.713 87.8889 202.119 85.4213 209.328L85.2701 209.77L84.8189 209.649L61.0065 203.268L60.5002 203.133L60.6596 202.633C64.0441 192.032 69.3062 183.563 76.4586 177.253L76.4608 177.251C83.6651 170.968 92.0105 166.923 101.488 165.119L101.49 165.119C111.024 163.333 120.93 163.822 131.201 166.574C142.352 169.561 151.479 174.375 158.563 181.027C165.701 187.689 170.501 195.496 172.949 204.442C175.46 213.406 175.387 222.826 172.743 232.691C170.881 239.641 168.114 245.654 164.436 250.72C160.825 255.796 156.42 260.017 151.222 263.38C146.095 266.754 140.283 269.397 133.791 271.312M75.2468 303.916L133.648 270.833M75.2468 303.916L75.7298 304.046L98.4082 310.122L98.8912 310.252L99.0206 309.769L99.3222 308.643M75.2468 303.916L98.6671 309.156M133.791 271.312C133.79 271.312 133.79 271.312 133.789 271.312L133.648 270.833M133.791 271.312C133.792 271.312 133.792 271.311 133.793 271.311L133.648 270.833M133.791 271.312C127.358 273.266 121.991 275.697 117.678 278.595L117.674 278.597C113.394 281.423 109.817 285.203 106.945 289.947C104.069 294.698 101.525 300.925 99.3222 308.643M133.648 270.833C127.179 272.798 121.763 275.247 117.399 278.18C113.052 281.049 109.424 284.885 106.517 289.688C103.61 294.49 101.051 300.764 98.8403 308.51M99.3222 308.643L99.3232 308.64L98.8403 308.51M99.3222 308.643C99.3218 308.645 99.3214 308.646 99.3211 308.647L98.8403 308.51M98.8403 308.51L98.6671 309.156M61.1359 202.785C61.1868 202.626 61.238 202.467 61.2897 202.309L61.2653 202.303L61.1359 202.785ZM61.1359 202.785L61.6122 202.938C61.6146 202.93 61.617 202.923 61.6194 202.915L61.1359 202.785ZM98.6671 309.156L98.5377 309.639L98.0547 309.51L98.6671 309.156ZM82.2724 363.018L82.2758 363.017C85.3558 362.118 88.0295 360.555 90.2897 358.331C92.6202 356.116 94.2102 353.424 95.0569 350.264C96.3359 345.491 95.7142 340.923 93.2008 336.59C90.6875 332.257 87.0245 329.438 82.2335 328.154C77.4425 326.871 72.8609 327.48 68.5178 329.976C64.1747 332.472 61.3523 336.117 60.0733 340.89C58.7943 345.663 59.416 350.231 61.9294 354.564C64.4427 358.897 68.1057 361.716 72.8967 363C76.1271 363.865 79.2558 363.875 82.2724 363.018Z" fill="url(#paint0_linear_716_4486)" stroke="white"/>
<g filter="url(#filter0_b_716_4486)">
<path d="M86.1073 299.915L86.4099 298.786C89.7468 286.836 93.562 277.637 97.8555 271.189C102.149 264.741 107.089 259.912 112.675 256.701C118.262 253.491 124.638 250.862 131.803 248.815C136.125 247.552 140.179 245.78 143.963 243.499C147.764 241.156 151.062 238.173 153.855 234.55C156.712 230.945 158.804 226.664 160.133 221.707C161.78 215.559 161.76 209.838 160.073 204.544C158.385 199.25 155.444 194.73 151.249 190.983C147.054 187.237 141.996 184.57 136.074 182.984C130.908 181.599 125.646 181.332 120.287 182.183C114.927 183.033 110.028 185.318 105.588 189.037C101.148 192.756 97.684 198.25 95.1963 205.518L71.384 199.138C74.7458 188.607 79.9636 180.221 87.0374 173.98C94.1742 167.755 102.438 163.75 111.83 161.962C121.284 160.192 131.114 160.674 141.319 163.409C152.406 166.379 161.456 171.158 168.469 177.744C175.545 184.347 180.293 192.075 182.715 200.928C185.2 209.797 185.131 219.126 182.508 228.913C180.659 235.815 177.916 241.77 174.277 246.78C170.702 251.807 166.342 255.985 161.197 259.313C156.114 262.659 150.347 265.282 143.896 267.185C137.427 269.15 132.011 271.599 127.647 274.532C123.3 277.401 119.672 281.238 116.765 286.04C113.858 290.842 111.299 297.116 109.088 304.862L108.786 305.992L86.1073 299.915ZM83.2741 358.869C78.6125 357.62 75.0577 354.885 72.6099 350.666C70.1622 346.446 69.5603 342.014 70.8043 337.372C72.0483 332.729 74.7852 329.192 79.015 326.762C83.2447 324.331 87.6905 323.74 92.3522 324.989C97.0138 326.238 100.569 328.973 103.016 333.193C105.464 337.413 106.066 341.844 104.822 346.487C103.998 349.561 102.454 352.173 100.19 354.324C97.989 356.491 95.3869 358.013 92.3838 358.889C89.4605 359.72 86.4239 359.713 83.2741 358.869Z" fill="url(#paint1_linear_716_4486)"/>
</g>
<g opacity="0.4">
<path d="M594.149 340.901L594.31 341.375L594.784 341.214L608.944 336.394L609.418 336.233L609.257 335.76L609.018 335.058C607.45 330.193 606.592 326.005 606.431 322.487C606.269 318.977 606.819 315.731 608.071 312.741L608.073 312.737C609.32 309.691 611.289 306.514 613.992 303.207C616.76 299.877 618.908 296.4 620.433 292.775C622.001 289.128 622.841 285.305 622.952 281.31C623.104 277.294 622.432 273.102 620.946 268.738C618.838 262.541 615.519 257.491 610.983 253.604C606.488 249.704 601.147 247.252 594.974 246.245C588.83 245.223 582.26 245.912 575.274 248.29C568.838 250.48 563.397 253.747 558.961 258.096L558.96 258.097C554.56 262.437 551.56 267.57 549.966 273.489L549.966 273.491C548.408 279.411 548.629 285.802 550.605 292.651L550.75 293.155L551.246 292.986L566.115 287.926L566.557 287.775L566.437 287.324C565.192 282.647 565.091 278.601 566.09 275.166C567.098 271.7 568.835 268.831 571.3 266.545C573.785 264.241 576.605 262.553 579.763 261.478C583.393 260.243 586.937 259.874 590.402 260.362C593.865 260.849 596.941 262.168 599.641 264.321C602.327 266.462 604.316 269.404 605.599 273.173C606.634 276.215 607.033 279.159 606.806 282.009L606.806 282.009L606.805 282.016C606.615 284.868 605.942 287.559 604.787 290.093C603.612 292.604 602.119 294.944 600.307 297.112C597.218 300.765 594.751 304.454 592.912 308.179C591.053 311.944 590.139 316.336 590.154 321.34C590.168 326.357 591.428 332.645 593.907 340.19L593.909 340.195L594.149 340.901ZM619.243 370.116L619.246 370.113C620.576 368.522 621.45 366.718 621.864 364.708C622.319 362.674 622.204 360.649 621.521 358.643C620.489 355.612 618.507 353.372 615.597 351.945C612.687 350.517 609.699 350.317 606.661 351.351C603.623 352.385 601.377 354.366 599.942 357.272C598.507 360.179 598.302 363.162 599.333 366.194C600.365 369.225 602.347 371.464 605.257 372.892C608.167 374.319 611.156 374.519 614.193 373.486C616.239 372.789 617.928 371.667 619.243 370.116Z" fill="url(#paint2_linear_716_4486)" stroke="white"/>
<g filter="url(#filter1_b_716_4486)">
<path d="M598.754 335.172L598.513 334.465C596.041 326.944 594.799 320.713 594.784 315.77C594.77 310.828 595.673 306.515 597.491 302.831C599.31 299.148 601.753 295.492 604.82 291.865C606.66 289.663 608.178 287.286 609.372 284.734C610.553 282.143 611.241 279.392 611.435 276.48C611.668 273.555 611.258 270.543 610.203 267.443C608.894 263.598 606.854 260.57 604.084 258.361C601.313 256.152 598.153 254.798 594.603 254.298C591.053 253.799 587.43 254.178 583.732 255.436C580.507 256.534 577.626 258.259 575.091 260.61C572.555 262.961 570.772 265.911 569.741 269.458C568.709 273.005 568.824 277.147 570.085 281.884L555.216 286.944C553.261 280.166 553.049 273.868 554.58 268.05C556.15 262.218 559.104 257.163 563.442 252.885C567.819 248.593 573.194 245.363 579.566 243.195C586.489 240.838 592.975 240.164 599.023 241.17C605.111 242.163 610.366 244.578 614.787 248.414C619.249 252.237 622.521 257.209 624.604 263.33C626.073 267.646 626.733 271.778 626.584 275.725C626.474 279.659 625.647 283.42 624.104 287.01C622.6 290.587 620.478 294.024 617.737 297.32C615.01 300.656 613.011 303.876 611.741 306.979C610.457 310.042 609.898 313.363 610.062 316.941C610.226 320.519 611.097 324.754 612.674 329.646L612.914 330.352L598.754 335.172ZM618.163 367.443C615.252 368.434 612.401 368.244 609.608 366.874C606.816 365.504 604.926 363.367 603.937 360.464C602.949 357.56 603.144 354.714 604.521 351.925C605.898 349.136 608.042 347.246 610.953 346.256C613.864 345.265 616.715 345.455 619.508 346.825C622.3 348.195 624.19 350.332 625.179 353.235C625.833 355.158 625.942 357.091 625.506 359.034C625.11 360.964 624.272 362.694 622.993 364.224C621.74 365.701 620.13 366.774 618.163 367.443Z" fill="url(#paint3_linear_716_4486)"/>
</g>
</g>
<g opacity="0.4">
<path d="M20.3726 324.518L20.502 325.001L20.985 324.871L27.0205 323.254L27.5035 323.125L27.3741 322.642L27.2946 322.345C26.7804 320.293 26.5451 318.554 26.5748 317.12C26.6044 315.694 26.9143 314.401 27.4987 313.232L27.5005 313.229C28.0889 312.027 28.9786 310.783 30.1824 309.496C31.4454 308.167 32.4545 306.756 33.2046 305.261C33.9757 303.754 34.442 302.151 34.6031 300.455C34.7817 298.747 34.6132 296.948 34.1077 295.062C33.389 292.379 32.1216 290.138 30.2987 288.356C28.4932 286.569 26.2866 285.377 23.6927 284.776C21.1058 284.169 18.2994 284.281 15.2847 285.089C12.5036 285.834 10.1051 287.064 8.09952 288.783L8.0984 288.784C6.10526 290.503 4.68274 292.601 3.83719 295.071L3.83718 295.071L3.83627 295.073C3.00311 297.553 2.91947 300.274 3.56199 303.222L3.67361 303.734L4.17993 303.598L10.5173 301.9L10.9685 301.779L10.8785 301.321C10.4966 299.375 10.5707 297.745 11.0592 296.406C11.5587 295.037 12.333 293.936 13.3799 293.087C14.4483 292.221 15.6337 291.615 16.9397 291.265C18.447 290.861 19.8882 290.808 21.2704 291.097C22.6495 291.384 23.8476 291.994 24.8741 292.929C25.8868 293.851 26.6082 295.079 27.0257 296.637C27.3636 297.898 27.444 299.094 27.2765 300.231L27.2764 300.231L27.2755 300.237C27.1217 301.385 26.7774 302.453 26.2432 303.444C25.6961 304.434 25.0243 305.346 24.2264 306.18C22.824 307.63 21.6788 309.117 20.7954 310.64C19.8892 312.202 19.3767 314.051 19.2413 316.171C19.1052 318.303 19.4633 320.989 20.2907 324.212L20.292 324.217L20.3726 324.518ZM30.5094 337.497L30.5119 337.494C31.1427 336.835 31.5814 336.066 31.8229 335.195C32.084 334.309 32.0919 333.409 31.8497 332.505C31.4836 331.138 30.6696 330.089 29.4306 329.376C28.1915 328.664 26.8724 328.488 25.5024 328.855C24.1324 329.222 23.0782 330.034 22.3612 331.271C21.6442 332.507 21.4643 333.823 21.8304 335.189C22.1965 336.556 23.0105 337.606 24.2496 338.318C25.4886 339.03 26.8077 339.206 28.1777 338.839C29.0966 338.593 29.8787 338.147 30.5094 337.497Z" fill="url(#paint4_linear_716_4486)" stroke="white"/>
<g filter="url(#filter2_b_716_4486)">
<path d="M22.7325 322.184L22.6519 321.883C21.8308 318.684 21.4859 316.056 21.6173 313.998C21.7487 311.94 22.2446 310.169 23.1049 308.686C23.9652 307.202 25.0849 305.748 26.4639 304.322C27.2919 303.456 27.9903 302.508 28.559 301.479C29.1233 300.432 29.4863 299.306 29.6481 298.099C29.8266 296.888 29.7391 295.622 29.3856 294.303C28.9471 292.666 28.1811 291.35 27.0877 290.354C25.9943 289.358 24.7148 288.708 23.2494 288.402C21.7839 288.097 20.2632 288.155 18.6872 288.578C17.3125 288.946 16.0641 289.585 14.9421 290.494C13.82 291.403 12.9948 292.582 12.4665 294.03C11.9381 295.479 11.8709 297.206 12.2648 299.213L5.92747 300.911C5.30085 298.036 5.38742 295.408 6.18718 293.028C7.00371 290.643 8.37529 288.62 10.3019 286.958C12.2453 285.292 14.575 284.095 17.291 283.367C20.2418 282.576 22.9635 282.474 25.4563 283.059C27.9658 283.639 30.0887 284.789 31.825 286.507C33.578 288.221 34.8036 290.381 35.5017 292.986C35.994 294.823 36.1542 296.562 35.9825 298.201C35.8275 299.835 35.3785 301.379 34.6355 302.831C33.9093 304.278 32.9294 305.651 31.6957 306.948C30.4664 308.262 29.544 309.547 28.9284 310.804C28.3083 312.044 27.9828 313.411 27.9519 314.905C27.9209 316.399 28.1661 318.186 28.6875 320.266L28.7681 320.567L22.7325 322.184ZM29.9253 336.152C28.6846 336.484 27.5014 336.327 26.3757 335.68C25.2499 335.033 24.5215 334.091 24.1903 332.855C23.8592 331.619 24.0193 330.44 24.6707 329.317C25.3221 328.193 26.2681 327.466 27.5088 327.133C28.7494 326.801 29.9326 326.958 31.0583 327.605C32.1841 328.252 32.9125 329.194 33.2437 330.429C33.463 331.248 33.4548 332.056 33.2191 332.853C33.0002 333.645 32.603 334.342 32.0275 334.944C31.4643 335.524 30.7635 335.927 29.9253 336.152Z" fill="url(#paint5_linear_716_4486)"/>
</g>
</g>
<g opacity="0.4">
<path d="M672.973 256.102L673.139 255.631L673.771 253.835L673.773 253.83C680.687 234.817 688.049 220.3 695.871 210.305C703.684 200.32 712.366 193.039 721.921 188.483C731.435 183.946 742.157 180.46 754.083 178.021C761.217 176.518 767.979 174.16 774.369 170.948C780.779 167.644 786.457 163.249 791.405 157.759L791.409 157.754C796.446 152.311 800.343 145.681 803.097 137.855C806.51 128.153 807.176 118.958 805.119 110.258C803.057 101.539 798.886 93.9124 792.599 87.3694C786.31 80.8242 778.494 75.9041 769.141 72.6134C760.99 69.7458 752.546 68.6655 743.804 69.373C735.09 70.0783 726.934 73.1431 719.328 78.5804C711.749 83.999 705.489 92.4042 700.569 103.84L700.385 104.269L699.944 104.114L662.061 90.7861L661.566 90.6122L661.763 90.1265C668.561 73.3756 678.129 60.3293 690.478 51.0126L690.48 51.0109C702.918 41.7391 716.923 36.2312 732.486 34.4892L732.487 34.489C748.145 32.7831 764.126 34.8025 780.425 40.5367C798.127 46.7642 812.307 55.6917 822.943 67.3317C833.674 78.9997 840.471 92.2231 843.322 106.996C843.322 106.996 843.322 106.996 843.322 106.997L842.831 107.091C845.764 121.804 844.492 136.943 839.016 152.51C835.154 163.487 829.958 172.816 823.426 180.498L672.973 256.102ZM672.973 256.102L673.445 256.268L709.525 268.961L709.996 269.127L710.162 268.656L710.793 266.863C715.337 254.587 720.254 244.763 725.538 237.376C730.817 229.995 737.131 224.27 744.48 220.19L744.483 220.188C751.883 216 760.934 212.713 771.649 210.336C782.405 208.041 792.144 204.483 800.862 199.659C809.688 194.865 817.338 188.584 823.809 180.82L672.973 256.102ZM676.573 352.834L676.576 352.833C681.641 351.768 686.132 349.585 690.039 346.288C694.055 343.019 696.94 338.893 698.689 333.92C701.332 326.408 700.896 319 697.388 311.725C693.88 304.449 688.345 299.474 680.803 296.82C673.26 294.167 665.829 294.581 658.539 298.057C651.248 301.533 646.27 307.037 643.627 314.549C640.984 322.06 641.42 329.469 644.928 336.744C648.436 344.019 653.971 348.995 661.514 351.648C666.604 353.439 671.626 353.838 676.573 352.834Z" fill="url(#paint6_linear_716_4486)" stroke="white"/>
<g filter="url(#filter3_b_716_4486)">
<path d="M690.711 251.151L691.343 249.355C698.248 230.366 705.589 215.903 713.364 205.967C721.139 196.031 729.763 188.805 739.236 184.288C748.709 179.771 759.392 176.296 771.285 173.864C778.462 172.352 785.265 169.98 791.696 166.748C798.161 163.415 803.888 158.982 808.876 153.448C813.964 147.949 817.895 141.258 820.668 133.375C824.108 123.596 824.787 114.303 822.705 105.497C820.622 96.6901 816.407 88.9836 810.059 82.377C803.711 75.7704 795.827 70.81 786.406 67.4957C778.188 64.6046 769.674 63.5155 760.863 64.2286C752.053 64.9417 743.811 68.0414 736.137 73.5277C728.463 79.0139 722.154 87.5034 717.21 98.9961L679.326 85.6685C686.096 68.9868 695.614 56.0193 707.879 46.7658C720.245 37.5475 734.165 32.0723 749.641 30.3401C765.217 28.6431 781.123 30.6505 797.359 36.3624C814.998 42.5678 829.103 51.4549 839.674 63.0235C850.346 74.6274 857.098 87.768 859.931 102.445C862.864 117.158 861.592 132.297 856.116 147.864C852.254 158.841 847.057 168.17 840.525 175.852C834.094 183.57 826.492 189.81 817.721 194.574C809.05 199.373 799.357 202.916 788.642 205.201C777.891 207.587 768.79 210.889 761.337 215.107C753.918 219.225 747.55 225.003 742.231 232.439C736.912 239.875 731.976 249.744 727.422 262.047L726.79 263.844L690.711 251.151ZM678.779 346.531C671.363 343.922 665.929 339.038 662.478 331.881C659.027 324.724 658.6 317.453 661.198 310.069C663.796 302.684 668.681 297.282 675.853 293.862C683.026 290.442 690.32 290.037 697.736 292.646C705.153 295.255 710.586 300.138 714.037 307.296C717.489 314.453 717.915 321.724 715.317 329.108C713.597 333.998 710.765 338.047 706.82 341.257C702.975 344.502 698.56 346.649 693.573 347.698C688.722 348.683 683.79 348.294 678.779 346.531Z" fill="url(#paint7_linear_716_4486)"/>
</g>
</g>
<defs>
<filter id="filter0_b_716_4486" x="60.1758" y="150.919" width="134.353" height="218.588" filterUnits="userSpaceOnUse" color-interpolation-filters="sRGB">
<feFlood flood-opacity="0" result="BackgroundImageFix"/>
<feGaussianBlur in="BackgroundImageFix" stdDeviation="5"/>
<feComposite in2="SourceAlpha" operator="in" result="effect1_backgroundBlur_716_4486"/>
<feBlend mode="normal" in="SourceGraphic" in2="effect1_backgroundBlur_716_4486" result="shape"/>
</filter>
<filter id="filter1_b_716_4486" x="543.571" y="230.718" width="93.0332" height="147.349" filterUnits="userSpaceOnUse" color-interpolation-filters="sRGB">
<feFlood flood-opacity="0" result="BackgroundImageFix"/>
<feGaussianBlur in="BackgroundImageFix" stdDeviation="5"/>
<feComposite in2="SourceAlpha" operator="in" result="effect1_backgroundBlur_716_4486"/>
<feBlend mode="normal" in="SourceGraphic" in2="effect1_backgroundBlur_716_4486" result="shape"/>
</filter>
<filter id="filter2_b_716_4486" x="-4.48535" y="272.685" width="50.5342" height="73.6356" filterUnits="userSpaceOnUse" color-interpolation-filters="sRGB">
<feFlood flood-opacity="0" result="BackgroundImageFix"/>
<feGaussianBlur in="BackgroundImageFix" stdDeviation="5"/>
<feComposite in2="SourceAlpha" operator="in" result="effect1_backgroundBlur_716_4486"/>
<feBlend mode="normal" in="SourceGraphic" in2="effect1_backgroundBlur_716_4486" result="shape"/>
</filter>
<filter id="filter3_b_716_4486" x="649.524" y="19.7571" width="221.94" height="338.47" filterUnits="userSpaceOnUse" color-interpolation-filters="sRGB">
<feFlood flood-opacity="0" result="BackgroundImageFix"/>
<feGaussianBlur in="BackgroundImageFix" stdDeviation="5"/>
<feComposite in2="SourceAlpha" operator="in" result="effect1_backgroundBlur_716_4486"/>
<feBlend mode="normal" in="SourceGraphic" in2="effect1_backgroundBlur_716_4486" result="shape"/>
</filter>
<linearGradient id="paint0_linear_716_4486" x1="136.598" y1="144.736" x2="68.747" y2="397.96" gradientUnits="userSpaceOnUse">
<stop stop-color="white"/>
<stop offset="0.920157" stop-color="white" stop-opacity="0"/>
</linearGradient>
<linearGradient id="paint1_linear_716_4486" x1="146.757" y1="141.42" x2="77.7517" y2="398.953" gradientUnits="userSpaceOnUse">
<stop stop-color="white"/>
<stop offset="0.916345" stop-color="white" stop-opacity="0"/>
</linearGradient>
<linearGradient id="paint2_linear_716_4486" x1="570.445" y1="234.965" x2="624.338" y2="393.328" gradientUnits="userSpaceOnUse">
<stop stop-color="white"/>
<stop offset="0.920157" stop-color="white" stop-opacity="0"/>
</linearGradient>
<linearGradient id="paint3_linear_716_4486" x1="574.646" y1="229.604" x2="629.456" y2="390.661" gradientUnits="userSpaceOnUse">
<stop stop-color="white"/>
<stop offset="0.916345" stop-color="white" stop-opacity="0"/>
</linearGradient>
<linearGradient id="paint4_linear_716_4486" x1="13.7175" y1="279.691" x2="31.7789" y2="347.097" gradientUnits="userSpaceOnUse">
<stop stop-color="white"/>
<stop offset="0.920157" stop-color="white" stop-opacity="0"/>
</linearGradient>
<linearGradient id="paint5_linear_716_4486" x1="15.6181" y1="277.574" x2="33.9869" y2="346.127" gradientUnits="userSpaceOnUse">
<stop stop-color="white"/>
<stop offset="0.916345" stop-color="white" stop-opacity="0"/>
</linearGradient>
<linearGradient id="paint6_linear_716_4486" x1="792.012" y1="5.4521" x2="650.323" y2="408.198" gradientUnits="userSpaceOnUse">
<stop stop-color="white"/>
<stop offset="0.920157" stop-color="white" stop-opacity="0"/>
</linearGradient>
<linearGradient id="paint7_linear_716_4486" x1="808.926" y1="1.33326" x2="664.826" y2="410.933" gradientUnits="userSpaceOnUse">
<stop stop-color="white"/>
<stop offset="0.916345" stop-color="white" stop-opacity="0"/>
</linearGradient>
</defs>
</svg>
