<svg width="91" height="123" viewBox="0 0 91 123" fill="none" xmlns="http://www.w3.org/2000/svg">
<path d="M27.6154 82.0794L27.486 82.5624L27.969 82.6918L39.7993 85.8617L40.2823 85.9911L40.4117 85.5082L40.5685 84.9229C41.7142 80.909 43.0338 77.6819 44.5195 75.2275C46.0008 72.7802 47.8429 70.8346 50.0443 69.3811L50.0477 69.3788C52.2731 67.8832 55.0499 66.6242 58.3887 65.6092C61.7951 64.6041 64.8481 63.2159 67.5438 61.4415C70.2803 59.6707 72.6 57.4477 74.5008 54.775C76.4392 52.1049 77.894 48.9403 78.872 45.2902C80.261 40.1065 80.3016 35.1482 78.9797 30.4262C77.6907 25.7136 75.1627 21.6026 71.4084 18.0984C67.6797 14.5961 62.8812 12.0684 57.0334 10.5015C51.6447 9.0576 46.441 8.8002 41.4284 9.73924L41.427 9.73952C36.4416 10.6887 32.049 12.818 28.2584 16.1247L28.2562 16.1266C24.4873 19.4525 21.721 23.9104 19.9442 29.4761L19.7848 29.9755L20.2911 30.1111L32.713 33.4395L33.1642 33.5604L33.3154 33.1185C34.5932 29.385 36.3577 26.6063 38.5848 24.7404C40.8365 22.8539 43.3098 21.703 46.0101 21.2744C48.7376 20.8414 51.412 20.9773 54.0379 21.6809C57.0583 22.4902 59.6254 23.8464 61.7502 25.7444C63.8727 27.6403 65.3569 29.9226 66.2095 32.5983C67.0565 35.2564 67.0722 38.1428 66.2337 41.2722C65.5564 43.8 64.4931 45.9703 63.0499 47.7922L63.0498 47.7921L63.0459 47.7973C61.6249 49.64 59.9503 51.1549 58.0208 52.3452C56.0851 53.5118 54.0115 54.4187 51.7987 55.0655C48.0283 56.1434 44.6641 57.5297 41.71 59.2277C38.7164 60.9483 36.0858 63.5275 33.8116 66.9435C31.5303 70.37 29.5225 75.2262 27.7747 81.4851L27.7733 81.4902L27.6154 82.0794ZM31.5077 113.46L31.5111 113.459C33.1546 112.979 34.5837 112.144 35.791 110.956C37.0386 109.77 37.8901 108.327 38.3428 106.637C39.0269 104.084 38.6932 101.635 37.3508 99.3204C36.0085 97.0057 34.046 95.4947 31.4848 94.8084C28.9237 94.1222 26.4686 94.4495 24.1487 95.7829C21.8288 97.1164 20.3155 99.0701 19.6315 101.623C18.9474 104.176 19.2811 106.625 20.6235 108.939C21.9658 111.254 23.9283 112.765 26.4895 113.451C28.2132 113.913 29.8895 113.92 31.5077 113.46Z" fill="url(#paint0_linear_716_4803)" stroke="white"/>
<g filter="url(#filter0_b_716_4803)">
<path d="M33.447 80.3059L33.6049 79.7167C35.346 73.4819 37.3365 68.6822 39.5764 65.3177C41.8163 61.9532 44.3935 59.4334 47.3078 57.7583C50.2221 56.0832 53.5483 54.7114 57.2863 53.6429C59.5409 52.984 61.6554 52.0594 63.6297 50.8692C65.6128 49.6463 67.333 48.0898 68.7904 46.1997C70.2807 44.3185 71.3723 42.0848 72.0653 39.4987C72.9249 36.2907 72.9146 33.3056 72.0345 30.5436C71.1544 27.7816 69.6202 25.4233 67.4319 23.4686C65.2436 21.5139 62.605 20.1227 59.5159 19.295C56.8213 18.573 54.0761 18.4339 51.2803 18.8777C48.4846 19.3214 45.9286 20.5137 43.6123 22.4543C41.296 24.3949 39.4889 27.2613 38.191 31.0537L25.7692 27.7253C27.5232 22.2307 30.2454 17.8551 33.9357 14.5986C37.6588 11.3508 41.97 9.26056 46.8691 8.3278C51.8012 7.40385 56.929 7.6551 62.2526 9.08157C68.0363 10.6313 72.7572 13.1243 76.4153 16.5604C80.1062 20.0054 82.5832 24.0374 83.8463 28.6562C85.1422 33.2839 85.106 38.1512 83.7377 43.2579C82.7728 46.8588 81.3414 49.9663 79.4435 52.5803C77.5784 55.2032 75.3037 57.383 72.6194 59.1198C69.9679 60.8653 66.9594 62.2345 63.5939 63.2273C60.2196 64.2529 57.3941 65.5308 55.1174 67.061C52.8494 68.5584 50.9571 70.56 49.4404 73.0657C47.9236 75.5714 46.5886 78.845 45.4352 82.8866L45.2773 83.4759L33.447 80.3059ZM31.9675 111.066C29.5357 110.414 27.6814 108.987 26.4046 106.786C25.1278 104.584 24.814 102.272 25.463 99.8496C26.1121 97.4272 27.54 95.5818 29.7465 94.3135C31.9531 93.0452 34.2723 92.7369 36.7041 93.3885C39.1359 94.0401 40.9901 95.4667 42.2669 97.6684C43.5437 99.87 43.8576 102.182 43.2085 104.604C42.7787 106.209 41.9732 107.572 40.7921 108.694C39.6437 109.824 38.2863 110.618 36.7196 111.076C35.1946 111.509 33.6106 111.506 31.9675 111.066Z" fill="url(#paint1_linear_716_4803)"/>
</g>
<defs>
<filter id="filter0_b_716_4803" x="15.1348" y="-2.21698" width="79.6572" height="123.615" filterUnits="userSpaceOnUse" color-interpolation-filters="sRGB">
<feFlood flood-opacity="0" result="BackgroundImageFix"/>
<feGaussianBlur in="BackgroundImageFix" stdDeviation="5"/>
<feComposite in2="SourceAlpha" operator="in" result="effect1_backgroundBlur_716_4803"/>
<feBlend mode="normal" in="SourceGraphic" in2="effect1_backgroundBlur_716_4803" result="shape"/>
</filter>
<linearGradient id="paint0_linear_716_4803" x1="59.7879" y1="-0.661374" x2="24.3857" y2="131.461" gradientUnits="userSpaceOnUse">
<stop stop-color="white"/>
<stop offset="0.920157" stop-color="white" stop-opacity="0"/>
</linearGradient>
<linearGradient id="paint1_linear_716_4803" x1="65.0901" y1="-2.39133" x2="29.0856" y2="131.98" gradientUnits="userSpaceOnUse">
<stop stop-color="white"/>
<stop offset="0.916345" stop-color="white" stop-opacity="0"/>
</linearGradient>
</defs>
</svg>
