<svg width="154" height="154" viewBox="0 0 154 154" fill="none" xmlns="http://www.w3.org/2000/svg">
<circle cx="77" cy="77" r="35" fill="white"/>
<path d="M72 82.0001L82 72.0001M82 72.0001H74.7586M82 72.0001V78.5518" stroke="#131313" stroke-width="2"/>
<path d="M54.4296 148.066C53.3145 147.898 52.3324 147.479 51.4832 146.808C50.6309 146.139 50.0072 145.305 49.612 144.306C49.2141 143.307 49.0979 142.259 49.2631 141.162C49.4252 140.087 49.8421 139.131 50.5138 138.296C51.1851 137.463 52.0216 136.849 53.0233 136.454C54.022 136.062 55.0576 135.946 56.1302 136.108C57.2055 136.27 58.1624 136.686 59.001 137.355C59.8365 138.027 60.4536 138.86 60.8522 139.854C61.2478 140.851 61.3646 141.886 61.2025 142.962C61.0416 144.029 60.6263 144.983 59.9564 145.824C59.2866 146.666 58.4608 147.289 57.4791 147.695C56.4948 148.101 55.4783 148.225 54.4296 148.066ZM54.5601 145.985C55.2823 146.093 55.9692 146.022 56.6208 145.77C57.2694 145.52 57.8111 145.124 58.2459 144.581C58.6806 144.038 58.9521 143.409 59.0601 142.692C59.1661 141.988 59.0911 141.306 58.8349 140.646C58.5788 139.985 58.183 139.432 57.6476 138.984C57.1092 138.539 56.5001 138.266 55.8205 138.163C55.1381 138.06 54.4753 138.144 53.8318 138.413C53.1858 138.682 52.6417 139.095 52.1996 139.65C51.7571 140.208 51.4832 140.836 51.378 141.534C51.2743 142.221 51.3489 142.888 51.6018 143.535C51.8542 144.184 52.2446 144.729 52.7728 145.169C53.3006 145.613 53.8964 145.885 54.5601 145.985Z" fill="white"/>
<path d="M36.8374 124.842L28.9618 133.33L27.3882 131.87L30.7987 128.195L24.7518 129.424L22.8653 127.674L29.5297 126.726L30.7409 119.186L32.6274 120.936L31.3466 127.604L35.2638 123.382L36.8374 124.842Z" fill="white"/>
<path d="M12.3877 113.765C11.8239 112.788 11.5396 111.759 11.5347 110.676C11.5262 109.593 11.7894 108.585 12.324 107.654C12.8574 106.719 13.6042 105.975 14.5646 105.421C15.5063 104.877 16.5132 104.607 17.5852 104.611C18.6549 104.617 19.6564 104.888 20.5896 105.425C21.5191 105.961 22.2551 106.699 22.7975 107.638C23.3412 108.58 23.6127 109.588 23.6122 110.661C23.608 111.733 23.3415 112.734 22.8128 113.666C22.2804 114.596 21.5434 115.333 20.6017 115.877C19.6669 116.417 18.6619 116.687 17.5865 116.688C16.5112 116.689 15.5088 116.432 14.5793 115.918C13.6485 115.401 12.918 114.683 12.3877 113.765ZM14.0968 112.569C14.462 113.201 14.9462 113.694 15.5496 114.046C16.1493 114.397 16.7968 114.574 17.4922 114.575C18.1876 114.577 18.8492 114.396 19.477 114.034C20.0932 113.678 20.5796 113.194 20.9362 112.582C21.2928 111.97 21.479 111.315 21.4949 110.618C21.5071 109.92 21.3414 109.273 20.9977 108.677C20.6527 108.08 20.1742 107.614 19.5623 107.279C18.949 106.941 18.2875 106.773 17.5778 106.773C16.8658 106.775 16.2041 106.953 15.5925 107.306C14.9903 107.654 14.5153 108.128 14.1677 108.728C13.8177 109.33 13.635 109.975 13.6198 110.663C13.6022 111.352 13.7612 111.987 14.0968 112.569Z" fill="white"/>
<path d="M16.9573 95.6879L5.66878 98.2644L5.01905 95.4178L12.6193 90.6179L13.2695 90.3538L12.5646 90.3784L3.62727 89.32L2.97753 86.4733L14.2661 83.8968L14.7437 85.9896L6.28617 87.92L15.4114 88.9148L15.8156 90.6856L8.02208 95.5255L16.4797 93.5951L16.9573 95.6879Z" fill="white"/>
<path d="M14.0534 76.1199L2.50697 75.2546L3.1369 66.8488L14.6834 67.7141L14.5221 69.8667L5.04792 69.1568L4.73973 73.2693L14.2139 73.9793L14.0534 76.1199Z" fill="white"/>
<path d="M16.6276 58.5187L7.60898 49.8047L8.22254 48.2413L20.7799 47.939L19.9177 50.1359L16.682 50.2116L15.1812 54.0356L17.4884 56.3256L16.6276 58.5187ZM13.6499 52.8332L14.6814 50.2052L10.8241 50.145L10.4039 50.0363L10.7873 50.2387L13.6499 52.8332Z" fill="white"/>
<path d="M25.1869 40.8797L16.1342 33.6605L17.4726 31.9822L21.0968 34.8724L23.6681 31.6481L20.0439 28.7578L21.3898 27.0701L30.4425 34.2894L29.0966 35.9771L25.3055 32.9538L22.7342 36.1781L26.5253 39.2015L25.1869 40.8797Z" fill="white"/>
<path d="M40.59 25.4952L38.8164 26.7044L32.2938 17.1375L34.0674 15.9283L38.834 22.9196L38.7348 22.5096L37.9242 13.2988L39.6944 12.0919L46.217 21.6588L44.4468 22.8657L39.6983 15.901L39.7703 16.2711L40.59 25.4952Z" fill="white"/>
<path d="M57.2436 17.1068L55.1923 17.7396L51.7794 6.67513L53.8307 6.04241L56.3248 14.1281L56.3508 13.707L58.2911 4.66655L60.3385 4.03501L63.7514 15.0994L61.704 15.731L59.2194 7.67608L59.1791 8.05097L57.2436 17.1068Z" fill="white"/>
<path d="M98.6036 5.49039C99.6812 5.82278 100.59 6.38404 101.33 7.17416C102.073 7.96251 102.565 8.88008 102.807 9.92687C103.051 10.9745 103.01 12.0281 102.683 13.0877C102.363 14.1268 101.808 15.0094 101.019 15.7354C100.231 16.459 99.3128 16.9413 98.2635 17.1823C97.2175 17.4217 96.1762 17.3814 95.1397 17.0617C94.1006 16.7412 93.2163 16.1875 92.4869 15.4005C91.7608 14.6118 91.2747 13.6962 91.0287 12.6537C90.7861 11.6095 90.825 10.5678 91.1455 9.52874C91.4636 8.49734 92.0166 7.61564 92.8043 6.88363C93.5921 6.15163 94.5016 5.65807 95.5328 5.40296C96.5665 5.14864 97.5902 5.17779 98.6036 5.49039ZM98.1642 7.52963C97.4664 7.31437 96.7765 7.2828 96.0945 7.43491C95.416 7.58525 94.8213 7.89634 94.3105 8.36816C93.7996 8.83999 93.4374 9.42227 93.2237 10.115C93.014 10.7949 92.9866 11.4805 93.1414 12.1717C93.2963 12.8629 93.6051 13.4695 94.0679 13.9916C94.534 14.5118 95.0954 14.8733 95.7522 15.0759C96.4116 15.2793 97.0795 15.2956 97.7559 15.125C98.4349 14.9551 99.0343 14.6286 99.5542 14.1455C100.075 13.6599 100.439 13.0797 100.647 12.4049C100.852 11.7404 100.878 11.0698 100.724 10.393C100.571 9.71359 100.267 9.11664 99.8101 8.60209C99.3543 8.08497 98.8056 7.72749 98.1642 7.52963Z" fill="white"/>
<path d="M123.401 34.7368L132.454 27.5175L133.792 29.1958L129.872 32.3221L136.035 32.0077L137.639 34.0197L130.908 33.9634L128.587 41.239L126.982 39.227L129.242 32.8243L124.74 36.4151L123.401 34.7368Z" fill="white"/>
<path d="M145.926 49.3349C146.338 50.3846 146.466 51.4449 146.309 52.5159C146.156 53.5884 145.746 54.5455 145.078 55.3873C144.412 56.2315 143.562 56.8562 142.53 57.2613C141.518 57.6586 140.482 57.7753 139.423 57.6113C138.366 57.4464 137.416 57.0289 136.573 56.3588C135.734 55.6902 135.116 54.851 134.72 53.8413C134.322 52.829 134.204 51.7924 134.364 50.7315C134.528 49.672 134.941 48.7212 135.603 47.8789C136.268 47.0381 137.107 46.419 138.119 46.0218C139.124 45.6274 140.158 45.51 141.221 45.6695C142.285 45.829 143.237 46.2323 144.08 46.8795C144.923 47.5292 145.539 48.3476 145.926 49.3349ZM144.058 50.2628C143.791 49.583 143.386 49.0239 142.842 48.5856C142.301 48.1488 141.687 47.8778 141 47.7726C140.312 47.6674 139.631 47.7473 138.956 48.0121C138.294 48.2721 137.741 48.6781 137.297 49.2301C136.853 49.7822 136.571 50.4018 136.452 51.0891C136.336 51.7779 136.403 52.4422 136.654 53.082C136.906 53.7244 137.31 54.2568 137.865 54.6792C138.421 55.1041 139.05 55.3692 139.752 55.4745C140.456 55.5788 141.137 55.502 141.795 55.244C142.442 54.9899 142.982 54.5918 143.415 54.0497C143.851 53.5066 144.128 52.8961 144.246 52.2183C144.366 51.5395 144.303 50.8877 144.058 50.2628Z" fill="white"/>
<path d="M138.714 66.5288L150.26 65.6635L150.479 68.5752L142.248 72.1888L141.566 72.353L142.266 72.4337L150.946 74.8123L151.164 77.724L139.618 78.5893L139.457 76.4487L148.108 75.8004L139.233 73.4567L139.097 71.6454L147.525 68.0211L138.874 68.6694L138.714 66.5288Z" fill="white"/>
<path d="M138.669 86.3109L149.958 88.8875L148.082 97.1055L136.793 94.529L137.274 92.4244L146.536 94.5385L147.454 90.5179L138.191 88.4037L138.669 86.3109Z" fill="white"/>
<path d="M133.5 103.332L141.119 113.293L140.28 114.747L127.817 113.175L128.998 111.131L132.208 111.538L134.262 107.981L132.322 105.372L133.5 103.332ZM135.597 109.398L134.186 111.843L137.991 112.477L138.39 112.647L138.041 112.39L135.597 109.398Z" fill="white"/>
<path d="M122.408 119.498L130.284 127.986L128.71 129.446L125.557 126.048L122.534 128.853L125.687 132.251L124.105 133.72L116.229 125.232L117.811 123.763L121.11 127.318L124.133 124.513L120.835 120.958L122.408 119.498Z" fill="white"/>
<path d="M104.884 132.415L106.818 131.484L111.842 141.916L109.908 142.848L106.237 135.224L106.274 135.644L105.702 144.873L103.772 145.802L98.7482 135.37L100.679 134.441L104.336 142.035L104.32 141.659L104.884 132.415Z" fill="white"/>
<path d="M87.1662 138.228L89.2888 137.908L91.0146 149.357L88.8919 149.677L87.6308 141.31L87.5423 141.723L84.2763 150.373L82.1576 150.692L80.4319 139.243L82.5506 138.924L83.8069 147.259L83.9026 146.894L87.1662 138.228Z" fill="white"/>
</svg>
