<svg width="22" height="22" viewBox="0 0 22 22" fill="none" xmlns="http://www.w3.org/2000/svg">
<path id="Vector" d="M16.7 22C15.57 22 14.38 21.73 13.15 21.21C11.95 20.7 10.74 20 9.56 19.15C8.39 18.29 7.26 17.33 6.19 16.28C5.13 15.21 4.17 14.08 3.32 12.92C2.46 11.72 1.77 10.52 1.28 9.36C0.76 8.12 0.5 6.92 0.5 5.79C0.5 5.01 0.64 4.27 0.91 3.58C1.19 2.87 1.64 2.21 2.25 1.64C3.02 0.88 3.9 0.5 4.84 0.5C5.23 0.5 5.63 0.59 5.97 0.75C6.36 0.93 6.69 1.2 6.93 1.56L9.25 4.83C9.46 5.12 9.62 5.4 9.73 5.68C9.86 5.98 9.93 6.28 9.93 6.57C9.93 6.95 9.82 7.32 9.61 7.67C9.46 7.94 9.23 8.23 8.94 8.52L8.26 9.23C8.27 9.26 8.28 9.28 8.29 9.3C8.41 9.51 8.65 9.87 9.11 10.41C9.6 10.97 10.06 11.48 10.52 11.95C11.11 12.53 11.6 12.99 12.06 13.37C12.63 13.85 13 14.09 13.22 14.2L13.2 14.25L13.93 13.53C14.24 13.22 14.54 12.99 14.83 12.84C15.38 12.5 16.08 12.44 16.78 12.73C17.04 12.84 17.32 12.99 17.62 13.2L20.94 15.56C21.31 15.81 21.58 16.13 21.74 16.51C21.89 16.89 21.96 17.24 21.96 17.59C21.96 18.07 21.85 18.55 21.64 19C21.43 19.45 21.17 19.84 20.84 20.2C20.27 20.83 19.65 21.28 18.93 21.57C18.24 21.85 17.49 22 16.7 22ZM13.2 14.26L13.04 14.94L13.31 14.24C13.26 14.23 13.22 14.24 13.2 14.26Z" fill="#65C82B"/>
</svg>
