<svg width="20" height="20" viewBox="0 0 20 20" fill="none" xmlns="http://www.w3.org/2000/svg">
<path d="M15.0979 20C14.0447 20 12.9357 19.7488 11.7894 19.2651C10.671 18.7907 9.54334 18.1395 8.44362 17.3488C7.35322 16.5488 6.30009 15.6558 5.30289 14.6791C4.315 13.6837 3.42032 12.6326 2.62815 11.5535C1.82665 10.4372 1.1836 9.32093 0.726934 8.24186C0.242311 7.08837 0 5.97209 0 4.92093C0 4.19535 0.130475 3.50698 0.382106 2.86512C0.643057 2.20465 1.06244 1.5907 1.63094 1.06047C2.34856 0.353488 3.16869 0 4.04473 0C4.4082 0 4.78099 0.0837209 5.09786 0.232558C5.46132 0.4 5.76887 0.651163 5.99254 0.986046L8.15471 4.02791C8.35042 4.29767 8.49953 4.55814 8.60205 4.8186C8.72321 5.09767 8.78844 5.37674 8.78844 5.64651C8.78844 6 8.68593 6.34419 8.49021 6.66977C8.35042 6.92093 8.13607 7.1907 7.8658 7.46047L7.23206 8.12093C7.24138 8.14884 7.2507 8.16744 7.26002 8.18605C7.37185 8.3814 7.59553 8.71628 8.02423 9.21861C8.48089 9.73954 8.9096 10.214 9.3383 10.6512C9.88816 11.1907 10.3448 11.6186 10.7735 11.9721C11.3048 12.4186 11.6496 12.6419 11.8546 12.7442L12.5163 12.1209C12.8052 11.8326 13.0848 11.6186 13.3551 11.4791C13.8677 11.1628 14.52 11.107 15.1724 11.3767C15.4147 11.4791 15.6757 11.6186 15.9553 11.814L19.0494 14.0093C19.3942 14.2419 19.6459 14.5395 19.795 14.893C19.9348 15.2465 20 15.5721 20 15.8977C20 16.3442 19.8975 16.7907 19.7018 17.2093C19.5061 17.6279 19.2637 17.9907 18.9562 18.3256C18.425 18.9116 17.8472 19.3302 17.1761 19.6C16.5331 19.8605 15.8341 20 15.0979 20Z" fill="white"/>
</svg>
